<svg xmlns="http://www.w3.org/2000/svg" xmlns:xlink="http://www.w3.org/1999/xlink" viewBox="0 0 18 18"><defs><path id="a" d="M0 0h18v18H0z"/></defs><clipPath id="b"><use xlink:href="#a" overflow="visible"/></clipPath><g clip-path="url(#b)"><path d="M17.1 18c-.2 0-.5-.1-.6-.3l-5.6-5.6c-3 2.3-7.2 1.7-9.5-1.3S-.3 3.6 2.7 1.3s7.2-1.7 9.5 1.3c1.8 2.4 1.8 5.8 0 8.2l5.6 5.6c.4.4.4.9 0 1.3-.2.2-.5.3-.7.3zM6.7 1.6c-2.8 0-5.1 2.3-5.1 5.1s2.3 5.1 5.1 5.1 5.1-2.3 5.1-5.1c.1-2.8-2.2-5.1-5.1-5.1z" fill="#172154"/></g></svg>