<svg version="1.1" id="Ebene_1" xmlns="http://www.w3.org/2000/svg" x="0" y="0" viewBox="0 0 626.7 272.9" xml:space="preserve"><style>.st0{fill:#fff}</style><path class="st0" d="M127.4 128.8c-1.8 2.4-7.4 1.6-7.5 5.5-1.4 1.4-2.6 2.3-3.6 4-.2 2.2.1 6.4-.6 9.5-1.8 1.9-3.4 4.1-5.4 6.1-3.1 2.3 1 4.7.9 5.6-2.5 1.4-2.7 5.9-.1 6.9 3.3 2.6 4.3 7.9 6.9 11.6 1.3 5 5.2 8 9.7 9.9 2.7 1.8 4.3 5 3.9 8.9-1.4 4.3.8 8.4.2 13-1.8 3.2 1.1 7.4.2 10.9-.5 4.2.3 8.4.3 12.2-.2 3.9 5 2.9 3.4 6.8 1.7 1.7 1 4.1 1.3 6.8-1 2.6 2.4 1.9.8 4.6 1.5 2.2 3.2 5.1 5.1 6.7 2.8-1.9 4 2.6 1 0-.6 1.2 1.1 3.3 2.6 1.6.9-3.1 4.5-1.6 1.4-4.1-1.3-3.1 3.2-5.7 2-8.2-3.7-.1-3.7-3.6-1.3-4.8-.4-2.2 1.3-4.2-.1-4.8-1.6-1.2-2.3-4.2 1.2-2.3 3.6.5-.8-6 4.2-4.2 5.2.8 5.9-6.9 2.1-7.8-3-3.3 2.1-.2 3.6-.3 3.7 1 4.2-4.1 6-6.2 2.8-3.6 4.2-8.4 3.8-12.7 2.8-3.4 7.3-4.1 10.7-5.7 2.2-3 3.3-6 4.1-9.6.6-3.1-.8-6.4.1-9.4 2.4-2.7 5.5-5.9 6.3-9.6 2.1-4.6-2.1-6.3-5.1-7.6-2.4-4-7.4-3.7-11.2-3.3.7-1.9-4.5-5.3-6.6-3.5-.8 2.5-4 2.2-.9.5 2.6-3.4-5-2.9-4 .1-4.7 2.5 1.7-3.3 2.2-5.2-2.6-1.2-1.7-5-3.8-6.9-2.4-2.3-6.8-1.4-9.3-3-2.6-1.3-3.1-4.9-6.5-5 2.2-2.8-4.5-1.8-1.5-3.9-3.3-.2-5.4 2.3-8.7.4-2.9.5-3.7-2.9-5.7-2.8 2.2 2.2-5.6 3.4-1.5.4.5-.4.2-1.3-.6-1.1zm18.6 11l-.5.1.5-.1zm-.9.2l-.1.2.1-.2zm-15.4.1l.1.5-.1-.5zm9.8 7.2l-.1.6.1-.6zm7.5.3l-.1.3.1-.3zm7.1 1.4c-.3.5-.3-.2 0 0zm-36.4 9.4l-.6.1.6-.1zm-1.3.5c-1.4.6-1.4.4 0 0zm11.8 2.8c.3-.1-.3.4 0 0zm-17.1.5c.3.1-.1.1 0 0zm2.3.9l-.2.1.2-.1zm10.3 3c.1.3-.7.4 0 0zm.5 5.8v.1-.1zm27.5 21.5l.4.1-.4-.1zm-14.9 3c.1 1-.1.9 0 0zm1.7 1c-.6.4-.7.3 0 0zm-.4 3.1v.4-.4zm10.6.6c.8-.4.8 1.5 0 0zm1.2 1.1l.3.1-.3-.1zm-12.4.3c.2 1.1.1 1.2 0 0zm-3.9 8.3l-.1.5.1-.5zm22.4 1.3c-.4.8-.8 1.3 0 0zm-20.5 12.1l.2.6-.2-.6zm-1.9 12.7c-2.1 2.5 2.5 4.7.7.5l-.4-.4-.3-.1zm3.5 2.2l.2.1-.2-.1zm.5.9c.2.6.1.6 0 0zm.8 1.6c.8.2.2.4 0 0zm-2 .5c-1.2.5 1.2 1.2 0 0zm-1 .5c-3 1.3 2.7 2.3 0 0zm.2 2.3c-5.6 2.3 4.2 2 0 0zm4.2 1.7l.1.2-.1-.2zm-3.8 2.3c-2.6.3 1.6 1.9 0 0zm.8 1.6c-2.8-.4.7 3.8.6.4-.1-.2-.4-.4-.6-.4zm6 5.1l.5.1-.5-.1zm-3.9.4c-1.5 1.2 1 .8 0 0zm8.1.2c2.2.8 2.1.9 0 0zm2.5 1.8c-3.4 0-.7 1.5-.8 2 .3 1.5 1.8 1.4-1.4 1.1-3.7.9 6.4 1.6 4.4.7 2.6 1.2 6.6-.1 1.7-.8-1.8-.6-2.7-2.4-3.9-3zm-9.1.1c.5 2.1 4 0 0 0zm6.7.9c-1.5 1.3 1.6 1.1 0 0zm-4.2.5c-.9 1.3 3.5 2.2 0 0zm10.1 2.6c-5.5.4.8 2.7.7.2l-.3-.1-.4-.1zm2.2.9c-5 .4 1.8 1.7 0 0z"/><path class="st0" d="M221.8 0c-6.3.5-13 .6-18.7 1.2-3 .4-5.9 1.5-8.6.5-5.1.1-12.2 1.1-16 2.9-1.4 1.6-15 2.4-4.4 3 3.8.9-8.3 0-2.2 2.6 3 .3 5.4-1.3 7.4-.4 5.8-.8 3.7 6.4 4.1 7.8 5.4.1 1.4 1.8-.1 1.6 8.5 2.4-3.9 2.8-1.7 6.2-1.3 2 .4 6.6 1.7 9.4 3 0 4.9 3.5 7.6 1.3 1.5-3 4.4-4.4 4.6-6.4.7-1.4 5.4-3.4 6.4-2.7 4.2 0 6.2-5.5 10.3-4.2 4.4 0 14.7-5.1 4.2-3.1-.7-.6 3.4-2.9 5.4-1.1 4.2-.3-3.1-2.6-1.7-4.2 2.7 2.2 5.9-1.3 7.4-2.3 2.4.7 1.4-3.4.9-3.8.9-1.2 1.2-3.9 4.2-4.5 8.5-1 .4-2.3-3.8-1.2-6 3.3.7-1.7-5.4-.4 6.7-1.2 4.1-.7-1.6-2.2zm-49 .5c-6.1.1-11.3 1.6-17.7 1.8-4.2 1.8 13.6 1.5 3.2 2.1-2.3-.2 4 3.9-2.2 2.1-1.9-.2-11.8 3.9-5.8 3.2 5-1.3 7.7 2.5 11.3-1.2 4.5-.9 6.5-5.5 11.4-3.5 3-2.4 11.9-1.9 11.9-3.7-4-.7-8.2-.2-12.1-.8zm-21.2 2.2c-6 .8-6.8 3.5-1.8 3.1-7.7 1.3 3.6 1.7 6.1.2 2.7-1.7-.8-1-2-2-1.2.2-.9-1.6-2.3-1.3zm-16.2 2.6c-5.5 1.6 5.8 4.2 3.4.6-1.3.3-2.2-.8-3.4-.6zm-8.3.5c-3.9 2.6 6.7.2 0 0zm14.8.5c-2.5 2.6 6.4.2 0 0zm-18 .7c-5.1.7 1.2 1.7 0 0zm3.2.1c-7.1.5-.8 2.6 0 0zm4.2.3c-2.6 2.2 2.2 1.4 0 0zm12.7.4c-6.5-.2 3.3 1.6 0 0zm-25.3 0c-2.3.2-11.7 1.6-8.8 2.8 2.2-.4 9.6-.5 8.8-2.8zm30 0c-4.6.3-.1 1.8 0 0zm-7 1.1c-6.2 1 4.9.3.3 3.2 3.8 1.5 7.1-.8 11.7.9 8.6-2.1-3-2.9-5.9-2.3-1.7.4-1.8-2.3-6.1-1.8zm-17.5.2c-2 4-7.6-1.4-11.7 2.4 1.5 1 5.7-1 3 1.4 2.5-.3 15.9-1.9 9.6-2.4.6-1.1.8-1.5-.9-1.4zm10.8.1c-7.2 2.3 4.2 3.9 2.2.1-.7 1.1-1.3-.5-2.2-.1zm-4.9.2c-1 3 4.1.8 0 0zm-1.7 1.7c-2.8.6.9 1.5.4.1l-.4-.1zm11.2.1c-7.5.7 4 1.9 0 0zM104 12.6c-1.7 1.3-10.5 4-5.6 5.6 4.2-1.3 9.5-3.2 13.1-4.3-2.1-1.5-5-.5-7.5-1.3zm35.9.7c-6.6.2-6.8 4.9-.7 2.2 1.6-1.2 5.7-2.1.7-2.2zm7.2.3c-4 0-9.4 4.2-5.5 4.8-6.7.7 5 1.9 7.2 2.2 4.1-2.8 5.6 1.1 5 1.8 4.6-1.2 3.5 4.2-.6 4.2.9 3.3-8.8-.8-6.1 3.7 2.8-1.5 8.7-.7 6.4 1.8 2.8 1.2 10 3.1 4.5-1.1 2.5 2.2 7.5 1.4 4.7-2.3-3.3-5.5 3.7 1 5.6-1 4.4-2.4.3-2.9-1.7-4.5-6.2-1.2 2.8-2-2-4.6-4.1-1.1-7.5-4.4-11.7-2.3 2-1.6-4.6-3.7-7.2.2-.1 3.9-1.2-2.9 2.9-2.7-.4-.4-1.1.1-1.5-.2zm-13.1.1c-5.7 0-5 1.4-8 2.2 3.2 4.2 6.3-.4 8.2-1.4v-.7l-.2-.1zm-9.1.1c-5.6-.1 1.8 2.7 0 0zm29.3.1c-1.5 3.2 9.4-.4.5 0h-.5zm-34 .8c-2.9 4.5-1.9 0-6.3.5-2.4.7-5.9-.8-9.7 2.3 2.8.8-3.9 2.1 2.7 1.6 9.5.8-11.7 1.2-.8 2.1-.9 4.2 8.4-1.8 10.6.7 3.6.2 9.1-1.8 4.2-3.6 1-1 2.3-4.1-.7-3.6zm13.5 2.3c-4.6.7-3 4.1-3.8 4.7 2.1.8-3.7 2.7-4 2.6 2-3.9-4.3 1-6.4-.3-2.6-.6-7.3-3.3-8-.8 6 .1-3.9 2.1-6.1.7-7.3 1.1 2.6-2.6-3.8-2.1-4.4-2.4-9.3 0-11.1-2.1-1.4-.4-12.5 4.5-8.9 1.7 9.2-2.5-.1-1.1-4.1-.1-3.6 1.1-7.8-2.3-11.8-1.6-5.6-.4-9.9-2.4-15.6-.6-4.5.5-9.2 2.7-13.8 4 3.3 1.4.8 5-.6 3.4.9-1.5-10.4 1.4-6.1 2-4.6 2.1 8.9 0 2 2.1-2.5 2.6-8.4 1.4-10.2 4.9-3.2 3.4 5.6 1-.5 4.5 2.5-.1 3.9.4 5.9 0 2.8 0-5.8 3.3-7.7 4.1-4.5.3-10.9 4.2-2.8 1.8 5.2-.8 9.4-3.9 14.7-5 2.9-2.4 6.4-3.6 10.1-5.5 4.3-.3-8.8 3.4-3.3 3.7 4.2 0 6.4-4.7 9.4-2.2 3.1 0 8.9 2.2 8.9 4.2-3.5 4.8 2.6 1.8 2.7-.6.1 3.4.5 6.7-1.3 9.5 2.9-.8-.1 3.7 1.4 4.4 3 1.1 5 6.7 0 5.7-1.6-.6-2.6 7.7-6.2 9.3-3 3.7-3.1 8.2-2.5 12.3-.1 1.4.4 5.6 3.7 6.1 2.6 3.1 1.4 8.5 3.7 11.4-5.8 1.7 3.6 2.3 2 5.9.4 4 5.9 5.7 2.1 1.5-1-3.7-1.2-8.3-3.4-10.7-.8-7.5 4.3-1.3 3.8 3 3 2.4 1.7 6.6 6.1 9.2 2.9 3.2.2 6.4 1.8 8.8 2 3.2 6.7 3.6 9.9 6.2 4.8 2.3 8.7-2.4 11.2 4.4 3.9 1.7 7.5.1 9.2 4.4.6 4.8 3 2.4 4.1 6.1 3.1.8 6.3 4.4 6.9-.3 2.3-.5 5.4 5.3 3.4-.8-3.5-2.5-8.1 2.5-9.5-3-1-3.8 3.5-10.8-2.6-10.6-5.9.9-6.5-.4-3.7-5.4.3-.8 5.3-7.5-.1-5.6-4.1.1-4.1 4.7-6.3 6.1-3.2-.4-8 .8-8.6-4.1-2.5-4.5 1.9-8.5 1.7-12.7.2-2.9 4.8-4.5 7.4-5.8 2.4-.2 7.8 3.9 7.3-.2.5-2.8 6.5.9 8.6-.2 4.1 1.3.6 8.3 4.6 9.7 3.9-3.4-1.8-10.2 2.3-13.8 2.8-2.6 6.2-3.7 8.7-7 3.4.2-.1-7.6 3.1-7.2-3 6.6 1.2 2.1 1.9 0 2.7-2.3 5.1-5.3 9.3-4.4-1.2-2 .4-5.1 4.4-5.7 1.1-.5 7.4-3.8 4.9-1.2-5.2 4.7 4.2.7 6.7-.4.1-1.6-6.5-1.9-4.5-5.5-3.6 1.2 6.9-3.6-1.3-2.4-4.7 2.1-7.6 2.3-1.2-.2 4.4-4.7 12.1 1.1 16.4-4.2 6.5-1.1 2.7-5.9.5-7.6-4.7-1.2-1.1-4-3.7-7.7-.6-4.5-4.8 5.3-7.9 1.1 3.1-4.3-1.5-6-5.5-5.8-4.2-2.1-6.4 6.2-7.1 7 3.5 5.9-7.3 4.5-6.8 9.2.1 5.9-7.3 4.4-4.2-.8 2.6-4.6-5.5-1.6-6.2-5.3-4.4-1-5.5.2-5.6-4.1-1.2-2.1 4.6-5.5 7.3-6.5 2-2 2-1.4 5.2-2.8 4 .9 6.1-4.6 9.2-4 1.3.1 7.4 0 5.9-3.4 5.3-1-2.7-3.6-4-.3-3.9 4-4.4.7-4.2-.9-2.8 2.2-2-1.2-1.6-2.8.4-.9-1.2-1.3-1.8-1.4zm49.2 2.4c-4.5 2.4 6 1.9.7.3l-.7-.3zm-56.1.7c-8 2 5 3.2.2 0h-.2zm24.5.7c-3.5.7-.4 2.2 0 0zm-131.7.8l.2.1-.2-.1zm133.5 1.2c-8.1 3 4.9 1.6 0 0zm1.6.3c-.6 2.5 3.2-.1 0 0zm-16 3.9c-3.6 1.4-8.1 5.5-2.4 4.2 2.4-2.1 8.6 2.1 4.7-2.2-.7-.9-2.4-.8-2.3-2zm7.8 3.6c-.5 1.5 1.9.9 0 0zm-1.5.3c-2.1 1.3 2.2 1 0 0zm-6.9 1.1c-7.1 2.2 3.3 1.8 0 0zm3.2 1.1c-3.1 1.9 2 1.3 0 0zm19.9 1c-2.1 1.6 1.7.9 0 0zM17.9 36.7c-5.2 1.2 2.8 1.9 0 0zm15.5 3.4c-4.1 1.7 3.1 1.1 0 0zm-2.1 1.2c-3.9 2.7 3.7.3 0 0zM58.1 43c-5.2 1.6 3.3 1.7 0 0zm78.1.6c-4.9 2.6 3.5.7 0 0zm-78.9 1c-3.7 3.7 2.3 3.8 0 0zm-47 1.9c-5.5 1.3 1.1 2.2 0 0zm45.4.4c-.5.5.8.5 0 0zM3.9 48.6c-4.1 2.4 2.3 1.5 0 0zm50.6 0c-4.9 3 5.8 0 0 0zM1 49.4c-2.8 1.4 1.2 1.5 0 0zm128.9.5c-3.4 1.6 3.2 1.1 0 0zm-75.4.4c-2.5.1.4 4 .1.2l-.1-.2zM167 53.2c-2.8 1-11.7 8.6-5.4 7.8 4.9-.9 1 3 5.7 0-.4 4.3 3.6-1.2 1.4-1.3 1.1-4.1-2.6-1.8-3.6-4 .3-.8 2.9-1.6 1.9-2.5zM55.8 54.5c-.5 3.8 8 7.1 3.5 1.3-1.4-.4-2-1.4-3.5-1.3zm97.1 1.7c1.5 4 6 .2 0 0zm-35.2 2.5c.1 0 .4.5 0 0zm37.9 2c-1.8 1.1.4 1.2 0 0zm-4.3 1.2c-.3 3.6 5.6 1.2.3 0h-.3zm5.5 0c-5.4 3.5 2.7 3.8 0 0zm-34.4 3.8v.3-.3zm2 4.3c.2.1-.2.1 0 0zm-14.8 39.3c-6.4 1.5-4 4.2.1.9 1.1 1.9 4.3 1.1 5.8 3.5 2.7 4.4 10.3.7 3.4-.6-3.5-1.6-5.3-4.1-9.3-3.8zm-1.4 2.5c-3.1 1.3 2.8 1.5 0 0zm17.7 4c-4.8-.5 2.9 4.4-4.1 2.7 3.1 3.1 6.5 0 9.7.9 3-1.9-3.9-3.7-5.6-3.6zm8.7 2.6c-.9 3.4 6.3-.2 0 0zm1.7 1.5c-.2.1.8-.1 0 0zm-20.7-1.2c-.3 3.2 6.1-.1 0 0z"/><path class="st0" d="M230.3-13.4c-2.6 2.4 4.3.8 0 0zm3 .9c-2.2.6-3.3 2.5-1 3.1 1.4 1.5 5.2 1.1 1 1.5-1.7.1 1 2.4 1.1 3.2 2.2-2.3 4.2 2.4 7.4 1.6 3.4 1.9.8 7.2 4.9 7.1.4 3.4 5.3 1.4 5.7-.7 2.1-1.9 5.2.3 5.5 2.2 1.3 1.8 4.4 2.9 6.3 2.5-1.2-1.9-3.1-2.6-4.1-4.8-2.7-1.6 1-4.4-2.9-5.1-1.6-3.9-5.5-4.6-9-5.9-3.1-1.3-6.4-3.2-8.6.1-3.3 4-2-5.3-5.9-4.5l-.3-.2-.1-.1zm5.7.7c-1.3 1.5 3.2 1.5 0 0zm20 2c-3.2 2.5 3.8.9 0 0zm5.4 1.4c-1.6 1.6 2.9.6 0 0zm1.8.7c-.7 2.5 4.8 2.6 0 0zm3.1 2.2c-1.8 3 2.4 2 0 0zm-2.2.6c0 2.8-3.3 2.7-5.7 2.7.5 3.3 8 1.1 7.1-2.2-.6 0-.9-.5-1.4-.5zm-8 2.1c-1.2 1.3 1.7.6 0 0zm1.1.8c-1.1.9 1.2.5 0 0zm-16.5 3.5c-4.4 2.1 1.3 3.2.3.1l-.3-.1zm5.8 6.9c-2.3 3.1-1.8 7.6-3.4 11.2-1.5 5.5-6.7-.2-8.6-2.3-1.9-.8.7-3.1.7-4.1 2.8-.5 0-3.4-1.3-2.4-2.1.8-7.3-3.6-5.4.3-2 .4-3.8 1.1-4.7 2.9-1.3 2 0 3.3-3 2.9-1.1-4.3-4.4-1.4-6 .5-1.4 1.7-2.6 2.2-3.3 3.9-1.1-4.2-2.5 3.9-4.4 4.4-2.8 1.8-5.8 1.8-8.9 3-3 1.8-5.2 2.4-5.7 5.9-.9 1.5.7 6.6-1.1 3.5-.4 2-1.2 1.3 0 4.1.5 3.3.6 7-.7 10.4-3.2 1.6-1.5 4.9 1.9 3.6 3.2-1.5 6.7-2.2 10.3-1.9 3-3.9 7.6-2.2 11.3-4.3 3.1-.5 5.8.3 8 1.9.2 1.7 0 6.9 2 2.8 1.8-1.1 5.4-3.3 2.4-.1-.9 1.1-3.6 3.6-.5 2 2.4-2.3-1.2 1.9.9 1.7-1.8 3.4 1.2 5.1 4 6 1.9-.6 4.1-3.3 4.3.1 2.6-.7 5-2.6 7.9-2.5 2.2-3.7 5.5-6.9 8.7-9.8 2.9-2.8 6.3-6.4 6.1-10.7 1.9-3.7-1.4-7.4-2.2-10-2.1-1.9-1.7-5.8-5.1-7.1-.4-2.9 1-7.3-1.5-9.2-3 2.3.1-6.4-2.7-6.7zm-21.2.8c-1.1 3.2 5-.4.5.1l-.5-.1zm59.3 47.6c-1.9 1.9.8 4.2-2.2 6.8-1.5 1.3-4 2.1-1.9 3.8-1.7.9-2.9 3.4.2 2.1 2.8-1.1 3.4-4.6 6.6-4.4 1.7-1 3.6-5.1-.2-2.9-1.2-.3.5-3.9-1.8-1.3-.3-.9 1.8-3.7-.7-4.1zM226.5 58c-4 1.4 4.4.3 0 0zm13.5 7.8c-2.6 2.3 1.9 1.5 0 0zm-6.1.1c-3 .7.4 1.9 0 0zm45.6 1.6c-3.4 2.4-6.2 5.2-10.3 6.2-2.8 1-5.5 3.1-7.7 4.2-.8 2.9 5.6 2.3 7.2-.6 2.5-2.8 6-2.5 8.4-5.1 1.8-.4 6.6-4.4 2.6-3.8-.2-.2.3-.9-.2-.9zm-45.6.5c-.8 1.4-3.6 7.2-.2 5.2 2.2 0 6.6-4.4 4.8-5-2.2.7-2.5.7-4.6-.2zm27.5 11.7c-4.6 1.7 2.1 1.3 0 0zM100.7-168.4c-9.1 1.8 7.8 2 1 .1l-1-.1zm2.9 1.3c-8.7.5 7.5 4.4 4.6.8-1.6-.5-3-.1-4.6-.8zm7.6 1.3c-3.5 4.6 9.8.3.6.6l-.1-.4-.5-.2zm3.8 2.5c-.2 4-6.3 1.1-8.9 2.8-4.6-.3-6.4 1.5-3.2 3.1-4.2-.8-10.4.8-3.5 2.3 5.1 2.1-4.9-.4-5.5.1-2.3 1 .7.5 2.1 2.2-2.9 1.3-7-4.7-5.9-2-1.4 1.6 3.1 6.2 6.4 4.9 4.8 3.3 2.4 2.6-1.4.5-1.3.6-.8 6.9-6.2 3.6-.9.6 7.5-1.3 2.2-3.8-1.9-2.8-4.9-8.8-8.4-5.6-3.4 2.9 3.7 4.9 3.3 6.6-5.6-2.9-1 1.8-6.2 3.9 1.3 5.5 5.8 13.9 4.1 18-5.4 2.7 3.5 4.4 4.4 3 2.9 7.6-3.5 6.5-8 4.8 1.4 3.5-5.2 2.1-7.1 5.2-1.7.8.8 9.5 4.1 4.7 3.8-1.6 5.4 3.8 1.3 3.5-.1 1-1.8 2 1.7 3.4 2.5 2.1 1.6 5.2 4.1 2.7 5 3.4-4.1 1-.1 4.7 4.5 4.3-.3 7.9-4.9 4-5.1-2.8 3.8-5.7-2.8-7.7-5.2-1.4-7.5-1-7 4.1 1.2 2.5 1.3 5.8 4.4 6.9-2 4.5 2.5 5.8 3.9 9 .7 4.8 4.5.7 6 5.2 1.4 3.6 6.5 5.3 9.7 3.3 1.8 4.1 7.4 4.5 12 4.1 5.4-1.8 6.8 1 10.3 4.3 5.1.3-2.8 1.6 3.4 4.6 3.6-.9 2.8-5.4 4 .5-1 5.8 3.8 9.9 4.8 15.4 2.4 2.2 3.3 13.2 7.2 6.7 2.5-3 1.5-8.1 1.8-12.5 2.6-.9 4-3.6 6.1-5.6 3.3-1.8 3.7-7.1 7.1-6.5 4-1.2 4.9-3.3 5.9 2.7 3.2 1.7 4.3 2.6 4.8 7.3 1.5 5.6 5.4-4.8 6.4 1.7.9 4.5 1.9 8.1 2.3 11.8-3 4 2.3 4.2 3.6 7.8-.2 3.8 3.1 10.5 7.1 8.5-2.1-3.7-1.4-9.4-6.5-10.8-3.2-3.9-3.8-8.3-1.3-12.6 1.2 1.7 4.8 2.9 5.6 5.3 3.5 1.4 2.8 7.2 6.1 1.2 5.6-1.3 4.5-7.9 1.9-11.7-2.8-1.8-7.1-4.6-4.9-8.1 1.7-5.4 5.6-.2 6.9-1 1-4.1 8.7-2.1 11-6.2 3.2-3 3.2-7.6 4.7-11.5-4-.9.5-5-4.8-7.4-4-3-3.2-6-.1-8.5-4 .1-6.6.7-9.4-2.8 3.1 1.1 2.4-5.8 5.9-3.3-1.6 6.7 2.6-.1 6.4 2.4-.8 4.7 5 2.4 4.6 7.1.3 7.2 2.8 1.6 5.8.6.2-4.4-8.9-6.5-6.1-9.2 1.4-4.8-1-4.6 2-6 6.3 3.4 6.3-8.2 5.3-11.7-2.5-3.7-3.6-8.7-8.7-9.6-2.7 1.3-4.2-.9-7.9-1.3 1.6-2.7 2.5-4.6 2.8-7.6 3.4-.9 8 0 10-.7 1.5 1.6 11 .9 5.5-.4-1.2-4.4 3.9-4.8 6.3-2 2.8-.7-.6-5.9 3.4-1.3 2.4 3.3-3.8 7-.1 10.2 3 1.6 9.2 10.8 11.1 8.2-2.7-3.8 2.4-5.1-1.2-7.3 1.8-2.2-4-3.5-5.6-6.5-1.9-3 3.2-1.2 5.1-2.8 4.3 3.5 2.3-2 5.8-3.1.8-1.2 7.7 1.3 1.9-2.2-8-5.9-15.9-12.3-26.1-10.9-6.1-.8 5.5 3.4-2.3 1.4-2.4-3.2-8.1.2-12.7-1.2-5.3-4.1-12.5-.9-18.4-3.3-3.2-1.4-4.8-.6-10.1-1.6-6.7-.7 2.6 3.7-5.6 1.8-5-1.2-4.4 2.4-9.6-.3-5.5-1-1.3-3.1-8-2.8-4.2-.4 3.8 2.4-3.9.9-4.6-1.2-9.7-.7-13.7-1.7-1.9 1.5-6.4 1.7-.6-1.1 2.1-4.2-9-1.6-9.8-3.5-2.4.2-3.1-2-6.1-1.3zm-6.6.4c-2.3.8 1.1.9 0 0zm50.7 1.7c-.4 3.6 6.5 2.1 9 2.1.4-2.6-6.2-.8-8.2-2l-.8-.1zm-2 .7c0 2.2 2 .1 0 0zm13 .6c1.7 2.4 10.5.8 2.3 0-.9-.1-1.3.4-2.3 0zm-3.9 1.7c-.9 1.2 2.7.6 0 0zm2.1.8c-2.8 2.1 9.1 1.2 0 0zm44.1 6.4c-1.1 1.4 2.1.3 0 0zm29.3 26.5c.2 2.3 2.7 1.3 0 0zm2.7.4c-.2 1.3 1.9 1.1 0 0zm-143 .7c1.2.5 1.2.6 0 0zm107.1.1c.7 4.4 6.9 7.1 8.2 11.9.5 3.4 7.7 5.5 3.7 2.1-6-4.8 2.3-1.9-1.1-4.2-4-3.1-6.4-7.2-10.8-9.8zm-109.6.4l-.1.2.1-.2zm4.3 1.1l.2.2-.2-.2zm-7.6.1c-1 .4-1.1.3 0 0zm10.3.8c.3 0 .5 1 0 0zm78.5.2c-1 .2-1 .1 0 0zm-76.9.2l-.4.2.4-.2zm148.6.3c-1.7 1 2.4.5 0 0zm2 .7c-.9 1.2 1.8.7 0 0zm-165.8.3l-.1.3.1-.3zm55.3.5l-.1.1.1-.1zm40.8.2c1.1 1.1 1 1.3 0 0zm76.6.1c-1 .7 1 .6 0 0zm-149.4.7c.9.9-.2.4 0 0zm24.4.8c0 .2-.1.3 0 0zm-49.8.1c.6 0-.5.3 0 0zm143.7.2c-1.4.9.8.8 0 0zm-43.3.2l.9.7-.9-.7zm-37.4 0l.5.5-.5-.5zm-14.8 0l-1 .5 1-.5zm96.4.3c-2.7 2.6 2.2 1.3 0 0zm-110.3.1c-1.7.6-1.7.4 0 0zm-3 .1c.6.1-.7.1 0 0zm70.4.4c.2 0 .3.7 0 0zm-32.5 0c1.4.2 1.1.3 0 0zm-4.9.1c.6.2.6.4 0 0zm-6.9 0c.2.5-1.2 1.5 0 0zm44.5.2l.4.7-.4-.7zm-73.9.1l.9.5-.9-.5zm-36 .1c1.1.2-.6 0 0 0zm74.4 0c-.5.6-2.3-.3 0 0zm22.8.2l-.3.1.3-.1zm-96.6 0l.4.2-.4-.2zm78.5 0l.2.1-.2-.1zm-69.5.1l-.8.1.8-.1zm70.7 0l.3.1h-.9l.6-.1zm-30.2.1c.1.1-.1.6 0 0zm-42.3 0h.5-.5zm72.9.2c.6.8.5.9 0 0zm13.8 0c2.2.8 2.1.8 0 0zm-6.8.1c-2.3.9-2.5.7 0 0zm65 .3c-.9.9 1 .3 0 0zm-100.8.6c.2.3-.3-.1 0 0zm65.3 1.6c1.2 1.4 1 1.3 0 0zm-19.1 1.1c.1 0-.3.4 0 0zm25.4 0c.4.2-.1.3 0 0zm-27.7.2l-.2.3.2-.3zm28.2.2c.4.5-.1 1.1 0 0zM94-108.9c-.3 2.3 2.3 5.4-1.1 6.6-3 .4-4.4-4.5-1.4-5.3.4-3.1 1.3.6 2.5-1.3zm112.5.4c1 3 .9 3.1 0 0zm26.5 1.1c-2.4 1.4.4 1.9 0 0zm-92.9 0l.2.3-.2-.3zm91 1.5c-3.5.9-.3 4.1 0 0zm-9.7 0c.8 2.1.2 5.2.5 7.1 4.6 2.9-1.6-4.1 4.1-.6 3.5.7 4.7-6.4-1.1-4.4-1.4-.3-2.3-1.5-3.5-2.1zm-46.3.8l.2.1-.2-.1zm-50.7 0v.2-.2zm80.9 1.7c.6.8.9 1.2 0 0zm-116.9 3l-.2.5.2-.5zm117.6.3c.1.2-.3.2 0 0zm-111.6.2l.2.2-.2-.2zm-6.2.3l.2.8-.2-.8zm23.6.1c.1 0 0 .5 0 0zm12.7 1.1c.3 0-.5.8 0 0zm79.1.5l-.4.7.4-.7zm21.8.1c-4.6.8 1.9 5-.8 7.9-3.2-.4-1.3 5-6.8 3.6-5.7 4.5 1.8 2.5 4.8 1.7 2.3 5.4 1.2-2.9 4.9.1 4.1-.3 1.5-4 1.6-7.6-.1-3.1-3.4-3.7-3.7-5.7zm-111.4.1l.1.2-.1-.2zm-17.8.3zm24.6.4l-.3.2.3-.2zm82.2 0l-.1.1.1-.1zm-91.2.6c.5.2-.4.6 0 0zm6.5 1.3c.3 0-1 1 0 0zm-11.3 5c.2-.1.2.4 0 0zm14.2.3c.4 0 .4 1.1 0 0zm-11.8.1l.2.2-.2-.2zm13.3.9l.2.2-.2-.2zm-23.1 2.4c.2.3-.2 0 0 0zm26.9.1c-.2 1.1-.5 0 0 0zm93.9 2.5c-3.7 1.8-.7 4.2 1.4 1.6.5-1.1-.3-1.6-1.4-1.6zm-120.8.4c.1.4-.1 1.6 0 0zm116.1.5c-3.3 2.7 1.9.9 1.4 5.5 2.6.1 1.3-5.8-1.4-5.5zm-6.8.5c-2 1.2 2.2.2 0 0zm-109.5.6v.3-.3zm118.7 5.4c-1.9 1 1.3.7 0 0zm-95.3.1l.1.3-.1-.3zm10.8 3.5c.5.4 0 .2 0 0zm83.7.6c-2.4 1.2 1.7 1.3 0 0zm-1.3 3.3c-2.3 2 1.4.8 0 0zm-66 1.5l.1.1-.1-.1zm0 1.5v.1-.1zm55.3.2c-4.2 3.6 1.7 8.8.7 2.3-.1-.7.4-2.2-.7-2.3zm-32.8 5.8c-.1 1.3-.1 1.3 0 0zm-1.4 2.2c.3.2-.8.6 0 0zm-.5 1.2c.1.9-.1.9 0 0zm17.4 1.1c-7.6 2.8 3.6 5.2.5 0h-.5zm-16.3 2c.8.4-.3.4 0 0zm35.1 1c-.3 4.1-3 5.8 1.2 8.3 1 2.4 4.9.6 4.7 3.4.3 4.8 3-3.7-1.5-3.2-5.2-.3 1.5-6.6-2.8-8.4-.6.2-1.1-.1-1.6-.1zm-28.9.9v.2-.2zm.1.3c.2.6.1.5 0 0zm-5.7.2c.2.2-.2.2 0 0zm7.1 2.6c1.2.6-.3.7 0 0zm-9.8 1c.2.7.1.8 0 0zm-10.2 4.9c-2.6 4.1 1.8 6.1.2.1l-.2-.1zm11 .1v.3-.3zm37.2 0c.5 5.3 4.4.5 0 0zm7.9 1.7c-.8 2.1-6.7 7.8-2.1 6.6 1-5.1 4.5.4 2.6-6.3l-.5-.3zm-5 .4c-1.5 6.5 4.1 3.3 0 0zm-3.6.2c-1.5 1.5 2.1.9 0 0zm-1.1 2.3c-2.3 3.1-4.2 8.3-.4 2.6 1.2 0 1.5-2 .4-2.6zm-36 .4l-.1.2.1-.2zm-11.1.2c.2.7 1.1 0 0 0zm56.3 1.6c-2.7 1.5 2.1 1.5 0 0zm-77.4.4c-.5 2.2-1.3 10.6 3.1 6.3-.2-2.3-1.6-4.9-3.1-6.3zm79.4.4c-.1 3.9-7.2 1.1-5.4 5.7 2.8-3.1 4.5-1.5 4.7 1.6 3.1 1.5 0-3.7 2.9-1.1.2-2.2-.4-5-2.2-6.2zm16.3 4c-1.7 1.7 1.2.9 0 0zm-71.7.8c-1.1 1.2 1.6 1.3 0 0zm11.6.1v.3-.3zm29.6.5c-2.3 1.2-3 4.3-5.5 5-2.4 2.5-4.4 6.5-7.6 4.9-2.6 3.1 1 5.9 1.4 9 1 2.7 5.7.1 7.5 2.7 3 .8 5.2-5.8 5.4-8.7 6.2.1-3.5-5.4 1.3-7.5 2.4-3.2-.2-2.4-2.5-5.4zm9 .8c-2.3.3.8 1 0 0zm-1.7.9c-2.1.4 1.1 1 0 0zm-45.1.6c.2 4.3 5.7 6.2 6.5 10.5 2.6 2.6 3.4 8.2 7.2 10.2 2.9 6 6.7-.5 4.4-3.8-3.3-1.7-2.8-5.5-4.9-7.1-1.9-2.4-5.3-3.7-7.9-6.6-1.2-2.9-3.1-1.7-5.3-3.2zm65.9 2.1c-1.3 1.2 2.1.9 0 0zm-10.9.5c-1.3.8.9 1.5 0 0zm-54.2 3.1c-2.2 1.3 3 .9 0 0zm57.2.7c-1.2 1.2 1.2 2.4 0 0zm-.9 1c-2.5 2.1 0 8.7.2 4.6 2.1-1.3 1.8-3.3-.2-4.6zm-4.9.6c-1.9 4.1-7.3-1.1-9.5 2.8-2 4.8-.8 7.3-.7 11.2 3 4.5 1.6-9.2 2.9-3.6.5 3.4 3.9 3.1 2.9-.6-4.8-2.5 5.6-6.4-1-4.6-4.4 2.2-2.8-4.9 2.4-2.1 1.8.7 4.4-1.9 3-3.1zm-91.7 1.9c-1.3 1.6 1.5 1.3 0 0zm55.9 1.7c-1.7 1.3 1.9.4 0 0zm-11.1.4c-1.4.7 1.2 1 0 0zm56.5 1.1c-.9.9.7.3 0 0zm-56.1.4c-1.8 1.3 2.9 2.3 0 0zm43.2.5c-3.1 1.5 3.1.6 0 0zm7.8.3c-2.8 1.9 3.6.7 0 0zm-38.5.2c-3.9 1.1 4.4 5.4.8 1.3.2-.3-.2-1.4-.8-1.3zm32.8.1c-1.5 2.5 4.9.2 0 0zm10.2.2c-3.1 1.4 3.2 1.5 0 0zm-53.5 1c-1.5 1.5 1.7.2 0 0zm46.1.2c-1.1.6 1.1.9 0 0zm-32 .4c-3.1 2.6 2.9 1.9 0 0zm36.4.8c-3 3.5 9.2 1.7 1.4.3l-.6-.2-.8-.1zm-3.7.5c-2.4 2.3 4.4 1.5 0 0zm-5.9 2.8c-5 3.4 2 3.3 0 0zM231-4.8c-1.6 1.4.6 1.1 0 0zm2.7.3c-4.3 3.7 1.6 3.8 0 0zm-24.9.7c-1.7 1.2 1.3 1.2 0 0zm-25.3.1c-4 3 2.2 3.5 5.2 3.8 2.2 1.9 13.2 1.5 7.1-.3-1.9-3.9-5.2-.7-8.1-2.4-.6-1.5-3.1-.6-4.2-1.1zm12.2 1.5c-1.3 3.2 4.6-.7 0 0zm32.3.9c-3.9 3 1.5 2.3.2 0h-.2zm-8.6.8c-4.4.7.1 2.1 0 0zm-15.5 1c-8.4 3.9 7 1.7 0 0zm-4.5.2c-4.2.4 2.2 2.1 0 0zm1.7 0c-3.4 2.5 1.6 2.7 0 0zm7.5.1c-6.7 4.1 8.9-.3 1.7.7-.8.3-.8-1.2-1.7-.7zm5.2 0c-2.3.6 1.7 1.7 0 0zm5.3.2c-4.9-.4-8.5 7.6-2.3 2.4.5-.7 5.5-1.6 2.3-2.4zm-13.2 1.9c.3 3.5 4.7.5 0 0zm6.7 2.8c-3.3 1 1.6 1.4 0 0z" transform="translate(334.27 184.21)"/><path class="st0" d="M19.3 40.9c-.1.1.1.1 0 0zm44.9.3v.1-.1zm4.8 1zm-31.2 2.5c-3.5.1 3.1 2.2.2 3.8-2.3 1.1-5.6.7-7.6-.4-2-1-5.2-1.2-7.4.1-.4 1.8-5.2-.5-3.2 1.7-1.3 1.2-3.5-.1-4.8.9-1.3 1.8 3.2 2.2.4 3.4-2.7-1-.1 1.4 1.2 1.2.8 1.3.5 2.8 3 2.5 1.2 2.2 3 .1 4.4-.2 2.5 2.5 5 0 7.8 0-1.2 1.7.1 4-.6 5.9-.5 1.8-.4 6-3.2 5.4-2.5-.8-1.8.5-1 2.1 1.1 1 1.7 5.8 3.6 4.1.4-1.2.3-4.3.6-1.7-1.3 2.8 2.6 2.9 3.4 5.4 1 2.7 2.5 4.2 4.5 6.2-.2 3.1 1.2 5.5 3.7 6.8.3 2.3 2.2 4.1 3.5 5.8 1.4 1.4-1.3 2.4.5 4 .4 2.1.6 5.6 3.7 3.6 2.4-1.3 5.1-1.3 7-2.8 1.8-1.4 5.8-.9 5.3-3.9 1.4-1.3 4-1 5.5-1.7-1.5-1.9 2.4-1.1 2.1-3.2 1.8-1.8 1.6-3.8 3.7-5.1 2.5-2.1-.8-2.2-.7-4-2.1-.3-5.1-1.4-4.8-4.1-1-.5.3-3.1-.9-1.1-1.3 1.6-2.5 5-5.2 3.5-2.6 1.4-2.2-1.9-2.4-3.4-1.7-1.2-.2 4.1-1.6 1.4-1.1-1.7-1.1-3.4-2.8-4.8-.8-1.3-2.1-3-2.5-4 2.2-1-1.6-2.8-1-4.8-1.4-1.5-3.2-2.2-4.2-4.2.1-1.7 1.5-3.9-.9-4.3-.6-1-1.8-2.4-2.3-3.8.8-.2-2-3.3.2-1.7 1.7.9 2.9-.2 4.5-1 1.3-.1.8 3 2.7 2.6-.6-1.7.4-4.2 1.9-4-2-1.1-3.7-3.4-6.4-2.8-2.9-.5-4.7-3-7.6-2.5-.5-.7-1.4-1-2.3-.9zm-1 .6c-.8-.5-.1.1 0 0zm14 3.2c0 .1.3-.1 0 0zM28.3 60.1c-1 .3-4 1.7-1.3 1.9.6 0 2.8-1.6 1.3-1.9zm23.2 11.2l.1.2-.1-.2zm-.8 1c0 .4 0 .6 0 0zm16.5 4.9c-2.3 1 1.4 1.5 0 0zm-9.4 1.2c-.9 1.3 1.4.6 0 0zm-24.5 6.7c0 .2.2 0 0 0zm32.1 20.7c-2.9.8 1.5 1.3 1 .1h-.5l-.5-.1z" transform="translate(315.18 46.391)"/><path class="st0" d="M.1-20.7C-2-19.3-10.4-22.6-8.5-19c-1.2-.1-3.2-1.8-3 .2-1.9-2.3-2.5 1.2-4-1.4-4.2.1 1.4 3.3 2.6 1.8 3.2.1-2.5 1.5.5 1.7-.8 1.3 5.2 2.1 4.4-1.3 1.4 0 4.3 3.9 3.8.3-.8-1.1-5.2-2-1.8-1.8 1.2.5 6.6 1.1 6.1-1.2zm48.3 4.5c-2.2 1.7-5.3.9-7.7 1.7-2.4.4-3.7 2.1-4.9 3.8 1.7-.1-1.4 1.2-.9 2.2-2.4 1.2 2.8 1.2 3.1 2.2 2.5.4 6.3.6 2.1-1-2.9-2-.9-3 .7-4.9 2.1-1.8 9-1.4 8.7-3.8-.4.2-.7-.3-1.1-.2zm-43 9.6c-1.3 1.4-1.7-.5-3.1 1.4 1.3-2.7-3.5.2-4.7.1-2.7-.2-5 2.5-7.2 3.4-1.7 1.6-3 3.4-3.8 5-1.3 1.4-4 2-4.5 3.3-2 .6-6.9 2.9-3.7 5-1.4 2.3.7 5.1 3.6 4.1 3-1.4 3.9-3.8 5.7-.1 1.4 1.5 1.2 7 3.9 4.8 1.7-1 3.4-2.6 3.1-5.7 2.7-.2 3.1-3.5 0-3.7-.7-2.6 1.7-4.2 3.9-5.3C-.3 3.8.3 1.1 3.7 2.5c1.9 1.3-2.1 3-3.6 3.9C-1 8.1-.1 12 2.6 11.9c2.4 1.7 6.4-1.7 8.8.1 4 .5-2 1.8-3.3 1.1-2.6-.6-6 .8-2.7 3.1C6 20 .7 13.8 1 18.9c1.6 1.9-2.1 5-3.2 3.6-2.9-1.1-5.7 2.7-8.6.3-2.2 2.3-3.4-1.7-5.3-.6-.9-.2.1 3.5-2.3 1.7-1.6.9-5.9 1.2-4.9 4.3-1.4.6-4 1-4.6 3.2-.5 2.2-3.2-.3-4.5.7 1.9 3.1-3.6.4-4.3 2.1.7 2.1 4.2 1.4 4.8 3.9 2.8 4.1-1.9 7.7-5.7 5.7-2.1-.6-7-.9-6.2 1.9.9 2.5-.3 4.7-1.1 7.3 1.5.7.4 5.3 3.4 3 1.7 1.3 1.9 3.5 4.5 1.3 3.4.8 5.5-1.5 7.1-3.3 2.8-.7-1.1-5 3.3-5.7 3.6-.3 1-6.3 5.5-3.7 3.5.8 6.5-5.3 8.7.5 1.4 2.6 4.6 3.2 6.8 4.6 1.8 1.3 2.4 3.2 1.9 5.2 1.9-.9 2.8-2.8 1.1-4.2.5-2.4 4 2.2 2-1.1C-3.5 48-4.4 47-7 45.4c-1.2-1.9-5.2-5.6-1.1-5.9.4 3 2.5.8 3 3.8 3.8 1.5 3.7 2.3 6.8 3.9-.8 3.1 1 5.2 3.4 6.7 1.8-.7 6.7 3.2 3.6-.2 3.3 0-1.8-1.1-1.1-2.4-2.1-3.9 1.8 1.2 1.8-2.2 2.8.3 5.2.5 7.9-.6-3.5-1.2-1.9-4.3-1.5-6.9 1.9-.2 2-4.9 4.3-3.6 2.1 1.2 4.3-.1 1.4 2.1 2.1.9 2.6 2.5 4.5.7 5.6.2-4.2-1.3-.5-2.6 2-.8 5.9-2.7 4.1 1.6-2.2 1.6 3.6 2.7 4.5 4.7 3.4-1.3 5 2.4 8.2 2.2 1.7.9 9.7 2.8 4.9-.9-1.6-2.1-4.7-5.3-.6-6.7.9-1.8 4.6-1.5 4.8-2.3.6-2.3-4.5-5.9-2.1-6.9 2 .4 4.1-.7 2.9-2.3 3-2.3 6.2 3.9 8.7.6.5-2.6.1-8.9-3.2-4.7-4.4-.1-3.6-4.2-.1-4.7-2.4-4.2-2.6-9.1-4-13.8-2.6-3.1-.2-4.8 2-6.5-.2-3-8.3-4.1-7.9-2.3 1.1 3.1-2.2-.6-3.7 1.2-2.3-.1-3.7 1.2-5.1-.6-3.5.2-6.4 4.5-9.4 2.6 4.9-1.1-5.3-3.7-1.9-1.3-.6 1.5 3.4 4.2-.5 3.2C23.7-.3 20.6-3.2 16-3.6c-3-.4-4.8-1.1-7.9-1.1.5-.8 3.2-.7-.3-1.5-1.6.9-1.3-.2-2.4-.4zM-3-3.5c.1.3-.5.2 0 0zm4 2.4c.4 1.2.3 1.2 0 0zm-9 .3c.3 0-.4.6 0 0zM-50.9.9C-52 2.4-55 1.2-55.7 2c-1.6-.1-1.7 1.6-2.9-.6-3 .4-3.4 2-.2 1.5-.8 1.1-4 .4-1 2 1.7 2.6 7.4.6 10.7.8 2.3-3.1 1.2-3.6-1.8-4.8zm38.5 4.8c.4 0-.8.8 0 0zm25.8 2c-.3.8-.5.9 0 0zm-10.7 6c-2.1 1.5 2.4.9 0 0zm1.1 1c-4.4-.3-1 3.4 0 0zm-40.4.1c-1.1 1.9-1.7 1.6-1.8.1-2.6 1.3-.1 2.6.9 3.7.2 1.6 1.7 2.1.9 3.7 2.3-2.7 4.2 4 .8 2.1-.3 2.6-2.7 4.1 1.5 3.9-1.3.4-5.8 3.9-1.4 2.3 2.3-1.2 6.6-.8 8.4-2.2-1-.6 2.1-2.8-.8-3.5-1.2-1.8-2.8-3.8-4.6-5.2-3.7.7 3.7-4.1-.7-3.5-3 1 1.3-2.4-2.4-1.3l-.8-.1zm45.9 1c.2-.1-.3.5 0 0zm-.4 4.1c.3 1.3.2 1.3 0 0zM8.2 21c.4.2-.9-.1 0 0zm-46.9 0c-2.3-.1-3.9.6-3.6 2.2-2.8-1.7-1.2.9-1.8 1.6 3.2.2-4 3.1.3 3.5 3.4-.5 6-1.6 5.8-5.3 1.4-.3-.2-1.7-.7-2zm40.2 1.8c.4 0 .5 1.3 0 0zm3.9 1.3c.4.4-.1.3 0 0zm-25.6 6.3c-.2.3-.9 0 0 0zm18.7 1.4c1 .1 1.6.5 0 0zM5 33.1c.2-.1 0 .2 0 0zm10 1.8c.2 0 .5.4 0 0zm-29 1.4c1.2.1-.1 1.4 0 0zm5.2 1.4c.7.2 0 .9 0 0zm8.9 1.4c.2 0 0 1.5 0 0zm-4.7 1.6c.1-.1-.2.2 0 0zm6 .8c.2.4.1.4 0 0zm.1 1.4c.2 0 .1.7 0 0zm.4 2.2c.1 1 0 1.1 0 0zm10.3 2.8c.3.5-.8.4 0 0zm-7.9 1.5c.1 0-.1.2 0 0zm1.6 5.1c-2.7.4 1.5 3.9 1.4 3 1.8 1.9.9-4.4-1.4-3zm4.5 0c0 1.3 2 .6 0 0zm.6 2.2c-2.4.7.8.9 0 0zm1 1.1c.6.8.1.2 0 0zm-2.7 1.5c-1.3 2.2 7.1 2.2 2.5.6-1.1.3-1.6-.5-2.5-.6z" transform="translate(315.18 46.391)"/><path class="st0" d="M-11.7 56.5c-2.7 2-5.8.7-8.6 1.1-4.2.1-7.4 2.2-11.2 3.4-4 .3-6.1-2.9-7.5 2.5-4.5 1-5.8 3.9-4.8 8-3.3 3.7-8.3 5.6-9.3 10.7-2.5 3.1-4.7 6.4-2.3 10 .1 2 .8 6.2-1.4 8.5-1.1 2.9 1.1 6.6 3 8.6 1.8 2.1 3 3.7 4 6.1 1.8 2.5 4.8 4.4 6.9 6.5 3.8.7 8.3-2.6 12-.5 3.1-1 6.3-3.1 8.7-2.7 4.5-1.8 3.6 6.3 7.6 3.4 7.6.4 1.5 9.3 3.5 13.2 1.3 2.9 5 5.8 4.6 8.4 1.6 3.6 2.5 7.7 2.2 11.4-2.7 3.3-3.6 8.7-2.9 13 2.8 4 4.8 8.8 4.6 13.9.7 5.2 4.3 9 5.4 13.9-2.4 1.5 1.1 6.2 3.7 4.1 3.7-1.2 7.8-.3 11.3-2 4.2-3.5 8.1-7.5 10-12.4-.3-5.2 7.9-5 5-11.2-2.6-4.1 4.5-6.8 7.3-9.2 3.4-3.1 4.4-9.4 2.4-13.1-1-2.7-3.7-9.1-.2-9.9-1.9-2.9 1.7-6.1 3.7-8.8 4.2-5.3 10.7-8.6 12.5-15.4 1.3-2.2 5.8-10.7 1.1-9.6-3.9.3-9.4 4.3-11.9.3.6-1.2-1.4-5-4.3-6.7-4.3-1.2-2.1-7.1-5.7-8.1-.2-3.9-3-8-4-9.2-.6-4-4.1-7.5-5.9-11.4-.6-3.8-.9-6.2-4.9-3.7-3.9 1-7.3-1.7-11-2-2-4.1-6.5-.5-6 3-4.5.4-7-3.6-10.6-4.9-2.7-.2-7.9-1.7-4-4.3-1.6-3.5.8-3.5-3-4.9zm42.8 9.4c-.2.2.1 0 0 0zm-42.6 5.2c.4 0-.2 1.1 0 0zm-38.9 1.6c-1.7 1 1.2.8 0 0zm-.7 1c-2.5 2.7 2 1.6 0 0zm-6.4.1c-1.9.4.8.7 0 0zm-.6.4c-.2-.1-.1.4 0 0zm3.1-.2c-3.3.4 1.1 2.6 0 0zm1 .9c-1.3 1.5 2 1 0 0zm43.4 3.6c.2 1.1.1 2.2 0 0zm-25.1 3.1c.4-.1 0 .4 0 0zm65.4 6.1c.5.8.4.8 0 0zm-15.8 5.2c0 1.9.1 4.9.1 7.2 0-2.4-.2-4.8-.1-7.2zm24.3 3.7c-.9.3-.9.2 0 0zm26.2 1.5c-.3 0 .2.3 0 0zm-133.8.3c-.3 1.1 1.6.3 0 0zm1.1 2.2c-2.3 1.3 1.5 1.5 0 0zm64.2 3.3c.1.3-.6.2 0 0zm-19.6 3c.2-.1.1.3 0 0zm35.2.1c.3.9.2 1 0 0zm-37.6 2.1c.1-.1.3.4 0 0zm38.4.1c.2.3-.3.2 0 0zm-54 1.3c.1.2-.2.1 0 0zm55 .5c.3.6.2.6 0 0zm.1.7c0 1.1-.1 1.1 0 0zm34.3.9l.2.5-.2-.5zm-34.4.5c.6.4-.3.4 0 0zm-15.9.2c.7.2 0 .2 0 0zm-43.4 1c.3-.2-.2.5 0 0zm102.1 1.2l-.1.3.1-.3zm-56.7.5c.4 0-.1.1 0 0zm20.6 4.3c0 .6-.1.8 0 0zm-2.9 0c.5 0-.5.1 0 0zm-1.9.8c1.4.2-1.2.2 0 0zm5.2.4c.7-.1.5 1.6 0 0zm-9.4 1.2c1.2-1 1.2 1.6 0 0zm20.5.2c.1 0 0 .1 0 0zm-44.1.5c-2.6 1.3 1.7 1.7 0 0zm42.4.2c-2 .4-3.7.2 0 0zm-26.9.1c2.5 0 2.5.2 0 0zm37.8.5l.2.2-.2-.2zm-48.6 2.4c.3.1-.2.1 0 0zm51.9 1.3c-.2 2.6-.3 2.6 0 0zm-18.2.6c.6.7-.8.2 0 0zm5.8 2.7c.1-.1.1.1 0 0zm12.4 2.2c1.1 1.3.9 1.4 0 0zm-20.4.9c-.1 1.2-.3 1.6 0 0zm-22.6.3c-.2.5-.3-.1 0 0zm-6.7.2c.4.1-.4 0 0 0zm-1.6.7c-.2.3-.2-.1 0 0zm.1 0c1 .1 1 .3 0 0zm30.3 1.2c.3 1.4-.2 1.1 0 0zM-8 137.9c-.9.8-1 .8 0 0zm4.2 2.3c.1.3-.9.4 0 0zm-1.9.5l-.2.6.2-.6zm-.3.8v.4-.4zm-.1.6l-.4.2.4-.2zM11.6 153c1 .2-.8 0 0 0zm2.3 0c.5 0-.1.2 0 0zm27 0c.1 0-.2.3 0 0zm-22 1.4c1.3.2-.5.1 0 0zm1 .7c1.1-.6 1 2.1 0 0zm38 .4c-1.2 1.6-2.1 4.4-4.2 5.5-1.9 2.2-6.9 2.7-6.1 7.1 2.4 4.6-4.7 9.6.8 14 6.6.9 5.3-8 8.1-11.6.8-5.2 3.9-7.1 2.8-11.8 0-1.1-.5-2.7-1.4-3.2zM10.6 157c1.1 0-.6.1 0 0zm18.5 2c.6.2.6.4 0 0zm3 2c.2 1.5 0 1.5 0 0zm-7.5 1.3c-.2.4-.2-.1 0 0zM12 166.2c.2 0 0 .1 0 0zm3.3.4c.5.1-1.1.2 0 0zm-.6.3c-.6.4-.6.2 0 0zm6.6 7.4c.3-.2.3.6 0 0zm.3 2.1c-1.7 1.3-3.5 2.5 0 0zm-15 4.8c.8 1.8.7 2 0 0zm2.6 2.5c.3 0-.7.7 0 0z" transform="translate(315.18 46.391)"/></svg>