<svg width="18" height="18" xmlns="http://www.w3.org/2000/svg"><path d="M5.625 0v2.25h2.25V0h2.25v2.25h2.25V0h2.25v2.25h2.25c.58 0 1.057.438 1.118 1.002l.007.123v13.5c0 .58-.438 1.057-1.002 1.118l-.123.007H1.125c-.58 0-1.057-.438-1.118-1.002L0 16.875v-13.5c0-.58.438-1.057 1.002-1.118l.123-.007h2.25V0h2.25zM15.75 5.625H2.25V15.75h13.5V5.625zm-9 5.625v2.25H4.5v-2.25h2.25zm3.375 0v2.25h-2.25v-2.25h2.25zm3.375 0v2.25h-2.25v-2.25h2.25zM6.75 7.875v2.25H4.5v-2.25h2.25zm3.375 0v2.25h-2.25v-2.25h2.25zm3.375 0v2.25h-2.25v-2.25h2.25z" fill="#5C6387" fill-rule="evenodd"/></svg>