<svg xmlns="http://www.w3.org/2000/svg" width="18" height="18"><path fill="#747A98" fill-rule="evenodd" d="M9 0C4.037 0 0 4.037 0 9s4.037 9 9 9 9-4.037 9-9-4.037-9-9-9zm1.993 13.713c-.495.195-2.213 1.016-3.204.143a1.257 1.257 0 01-.442-.988c0-.749.246-1.401.69-2.968.077-.296.172-.68.172-.985 0-.525-.199-.665-.74-.665-.264 0-.556.094-.821.193l.146-.6c.59-.24 1.332-.532 1.966-.532.952 0 1.652.475 1.652 1.378 0 .26-.045.716-.14 1.031l-.547 1.936c-.113.392-.318 1.255 0 1.511.312.253 1.05.119 1.415-.053l-.147.599zM10.09 6a1.125 1.125 0 110-2.25 1.125 1.125 0 010 2.25z"/></svg>