<svg xmlns="http://www.w3.org/2000/svg" viewBox="0 0 235 204"><path d="M.2 0v101.1h52.2c-.1 5.3-.9 11.7-3.7 18.4-4.8 11.6-12.8 18.2-19.9 24-5.6 4.6-15.1 11.2-28.8 15.9 7.8 14.9 15.7 29.8 23.5 44.6 10.2-3.5 24.9-9.8 40.2-21.4 7.2-5.4 18-13.7 27.5-27.5 14-20.3 17.4-41.3 18.3-54.1V0H.2zm125.5 0v101.1h52.2c-.1 5.3-.9 11.7-3.7 18.4-4.8 11.6-12.8 18.2-19.9 24-5.6 4.6-15.1 11.2-28.8 15.9 7.8 14.9 15.7 29.8 23.5 44.6 10.2-3.5 24.9-9.8 40.2-21.4 7.2-5.4 18-13.7 27.5-27.5 14-20.3 17.4-41.3 18.3-54.1V0H125.7z" fill="#464d75"/></svg>